<?xml version="1.0" encoding="utf-8"?>
<?xml-stylesheet type="text/xsl" href="rss1.xsl"?>
<rss version="2.0" xmlns:atom="http://www.w3.org/2005/Atom" xmlns:content="http://purl.org/rss/1.0/modules/content/" xmlns:dc="http://purl.org/dc/elements/1.1/" xmlns:media="http://search.yahoo.com/mrss/">
<channel>
 <title>Getty</title>
 <link>http://www.gettyimg.com/</link>
 <atom:link href="http://www.gettyimg.com/" rel="self" type="application/rss+xml" />

 
                <item>
                <title><![CDATA[【Apple Music】WEB-RiP - Jerome - Sick of You (1080p)]]></title>
                <link><![CDATA[https://sharemania.us/threads/jerome-sick-of-you-1080p.249121/]]></link>
                <description><![CDATA[<article>
<blockquote class="messageText SelectQuoteContainer ugc baseHtml">
<img src="https://i.postimg.cc/057KLvt6/Jerome-Sick-of-You-mp4.jpg" class="bbCodeImage LbImage" alt="[​IMG]" data-url="https://i.postimg.cc/057KLvt6/Jerome-Sick-of-You-mp4.jpg" style=""><br>
<br>
<div class="bbCodeBlock bbCodeCode">
<div class="type">Code:</div>
<pre>General
Complete name                  : G:\Новая папка\Jerome - Sick of You.mp4
Format                         : MPEG-4
Format profile                 : Base Media
Codec ID                       : isom (isom/iso2/avc1/mp41)
File size                      : 131 MiB
Duration                       : 2 min 41 s
Overall bit rate               : 6 816 kb/s
Frame rate                     : 25.000 FPS
Movie name                     : Sick of You
Performer                      : Jerome
Genre                          : Dance
ContentType                    : Music Video
Recorded date                  : 2020-11-13 08:00:00 UTC
Writing application            : Lavf56.30.100
Copyright                      : ℗ 2020 Kontor Records GmbH

Video
ID                             : 1
Format                         : AVC
Format/Info                    : Advanced Video Codec
Format profile                 : High@L4
Format settings                : CABAC / 4 Ref Frames
Format settings, CABAC         : Yes
Format settings, Reference fra : 4 frames
Format settings, Slice count   : 8 slices per frame
Codec ID                       : avc1
Codec ID/Info                  : Advanced Video Coding
Duration                       : 2 min 41 s
Bit rate                       : 6 571 kb/s
Width                          : 1 920 pixels
Height                         : 1 080 pixels
Display aspect ratio           : 16:9
Frame rate mode                : Constant
Frame rate                     : 25.000 FPS
Color space                    : YUV
Chroma subsampling             : 4:2:0
Bit depth                      : 8 bits
Scan type                      : Progressive
Bits/(Pixel*Frame)             : 0.127
Stream size                    : 126 MiB (96%)
Color range                    : Limited
Color primaries                : BT.709
Transfer characteristics       : BT.709
Matrix coefficients            : BT.709
Codec configuration box        : avcC

Audio
ID                             : 2
Format                         : AAC LC
Format/Info                    : Advanced Audio Codec Low Complexity
Codec ID                       : mp4a-40-2
Duration                       : 2 min 41 s
Duration_LastFrame             : -12 ms
Bit rate mode                  : Constant
Bit rate                       : 241 kb/s
Channel(s)                     : 2 channels
Channel layout                 : L R
Sampling rate                  : 48.0 kHz
Frame rate                     : 46.875 FPS (1024 SPF)
Compression mode               : Lossy
Stream size                    : 4.63 MiB (4%)
Default                        : Yes
Alternate group                : 1

</pre>
</div>
<div class="bbCodeBlock bbCodeVfcHH HiddenContent">
<div class="attribution type">Hidden Content:</div>
<blockquote>You must either reply or click 'Like' to see the hidden information contained here.</blockquote>
</div>
<div class="messageTextEndMarker">&nbsp;</div>
</blockquote>
</article>]]></description>
                <author><![CDATA[vitalya3]]></author>
                </item>

                
                <item>
                <title><![CDATA[【Singles (lossless)】FLAC - Freemasons Feat. Sophie Ellis-Bextor – Heartbreak (Make Me A Dancer) (Maxi CD Single) (Remixes) (Promo) (UK) (2009) [FLAC]]]></title>
                <link><![CDATA[https://sharemania.us/threads/freemasons-feat-sophie-ellis-bextor-%E2%80%93-heartbreak-make-me-a-dancer-maxi-cd-single-remixes-promo-uk-2009-flac.249122/]]></link>
                <description><![CDATA[<article>
<blockquote class="messageText SelectQuoteContainer ugc baseHtml">
<div style="text-align: center"><img src="https://i123.fastpic.org/big/2024/0707/4b/59e8c6a2d89c9237612774041a0cc34b.jpg" class="bbCodeImage LbImage" alt="[​IMG]" data-url="https://i123.fastpic.org/big/2024/0707/4b/59e8c6a2d89c9237612774041a0cc34b.jpg" style=""><br>
<b># Load132CDP1</b> <i>(Maxi CD Single) (UK)</i><br>
<b><a href="https://www.discogs.com/release/1811109-Freemasons-Featuring-Sophie-Ellis-Bextor-Heartbreak-Make-Me-A-Dancer" target="_blank" class="externalLink" rel="nofollow">DISCOGS</a></b><br>
01 <b>Heartbreak (Make Me A Dancer)</b> (Radio Edit) (3:27)<br>
02 <b>Heartbreak (Make Me A Dancer)</b> (Extended Mix) (5:02)<br>
03 <b>Heartbreak (Make Me A Dancer)</b> (Full Lenght Club Mix) (9:18)<br>
04 <b>Heartbreak (Make Me A Dancer)</b> (Dub Mix) (9:17)<br>
05 <b>Heartbreak (Make Me A Dancer)</b> (The Mac Project Remix) (8:00)<br>
06 <b>Heartbreak (Make Me A Dancer)</b> (Bitrocka Club Mix) (6:49)<br>
07 <b>Heartbreak (Make Me A Dancer)</b> (Bitrocka Dub Mix) (7:10)<br>
08 <b>Heartbreak (Make Me A Dancer) </b>(Bitrocka Italo Mix) (6:32)<br>
09 <b>Heartbreak (Make Me A Dancer)</b> (Steve Mac Dub Mix) (7:35)<br>
10 <b>Heartbreak (Make Me A Dancer)</b> (Instrumental) (3:25)<br>
<div class="bbCodeBlock bbCodeVfcHH HiddenContent">
<div class="attribution type">Hidden Content:</div>
<blockquote>You must reply before you can see the hidden data contained here.</blockquote>
</div></div>
<div class="messageTextEndMarker">&nbsp;</div>
</blockquote>
</article>]]></description>
                <author><![CDATA[Bnik]]></author>
                </item>

                </channel></rss>